HIERARCHY
ROOT RootJoint
{
    OFFSET   0.000000   0.000000   0.000000
    CHANNELS 6 Xposition Yposition Zposition Xrotation Yrotation Zrotation
    JOINT pelvis_lowerback
    {
        OFFSET   0.000000   0.093605   0.000000
        CHANNELS 3 Xrotation Yrotation Zrotation
        JOINT lowerback_torso
        {
            OFFSET   0.000000   0.100000   0.000000
            CHANNELS 3 Xrotation Yrotation Zrotation
            JOINT torso_head
            {
                OFFSET   0.000000   0.282350   0.000000
                CHANNELS 3 Xrotation Yrotation Zrotation
                End Site
                {
                    OFFSET   0.000000   0.192650   0.000000
                }
            }
            JOINT rTorso_Clavicle
            {
                OFFSET  -0.001000   0.157500   0.000000
                CHANNELS 3 Xrotation Yrotation Zrotation
                JOINT rShoulder
                {
                    OFFSET  -0.117647   0.000000   0.000000
                    CHANNELS 3 Xrotation Yrotation Zrotation
                    JOINT rElbow
                    {
                        OFFSET  -0.245000   0.000000   0.000000
                        CHANNELS 3 Xrotation Yrotation Zrotation
                        JOINT rWrist
                        {
                            OFFSET  -0.240000   0.000000   0.000000
                            CHANNELS 3 Xrotation Yrotation Zrotation
                            End Site
                            {
                                OFFSET  -0.116353  -0.002500   0.000000
                            }
                        }
                    }
                }
            }
            JOINT lTorso_Clavicle
            {
                OFFSET   0.001000   0.157500   0.000000
                CHANNELS 3 Xrotation Yrotation Zrotation
                JOINT lShoulder
                {
                    OFFSET   0.117647   0.000000   0.000000
                    CHANNELS 3 Xrotation Yrotation Zrotation
                    JOINT lElbow
                    {
                        OFFSET   0.245000   0.000000   0.000000
                        CHANNELS 3 Xrotation Yrotation Zrotation
                        JOINT lWrist
                        {
                            OFFSET   0.240000   0.000000   0.000000
                            CHANNELS 3 Xrotation Yrotation Zrotation
                            End Site
                            {
                                OFFSET   0.116353  -0.002500   0.000000
                            }
                        }
                    }
                }
            }
        }
    }
    JOINT rHip
    {
        OFFSET  -0.100000  -0.051395   0.000000
        CHANNELS 3 Xrotation Yrotation Zrotation
        JOINT rKnee
        {
            OFFSET   0.000000  -0.410000   0.000000
            CHANNELS 3 Xrotation Yrotation Zrotation
            JOINT rAnkle
            {
                OFFSET   0.000000  -0.390000   0.000000
                CHANNELS 3 Xrotation Yrotation Zrotation
                JOINT rToeJoint
                {
                    OFFSET   0.000000  -0.050000   0.130000
                    CHANNELS 3 Xrotation Yrotation Zrotation
                    End Site
                    {
                        OFFSET  -0.010000   0.002000   0.060000
                    }
                }
            }
        }
    }
    JOINT lHip
    {
        OFFSET   0.100000  -0.051395   0.000000
        CHANNELS 3 Xrotation Yrotation Zrotation
        JOINT lKnee
        {
            OFFSET   0.000000  -0.410000   0.000000
            CHANNELS 3 Xrotation Yrotation Zrotation
            JOINT lAnkle
            {
                OFFSET   0.000000  -0.390000   0.000000
                CHANNELS 3 Xrotation Yrotation Zrotation
                JOINT lToeJoint
                {
                    OFFSET   0.000000  -0.050000   0.130000
                    CHANNELS 3 Xrotation Yrotation Zrotation
                    End Site
                    {
                        OFFSET   0.010000   0.002000   0.060000
                    }
                }
            }
        }
    }
}
MOTION
Frames: 11
Frame Time:   0.008333
 -2.363998   0.857929   3.591355  -2.408320  -7.378133   1.003484   2.530505   2.557989  -0.334373   0.247256   2.309815   2.247478  -0.974674   2.553190  -0.604131   1.805429   4.896614  11.513922   4.589049  21.250673  41.810301  -0.002411  20.016908  -0.002301   3.548996   1.948196  -0.714452   2.164746  -0.240950  -9.749814   3.460672  -9.236651 -40.929420  -0.001294 -29.931728  -0.001556   3.531521  -4.979365   5.366186   2.367641   3.803336  -3.131700  45.778288   0.025095   0.003150 -25.289187   6.799893   1.666006  -5.566260  -0.028552   0.000922 -26.766642  -2.471996   0.910097  13.167005   0.015584  -0.001010   5.419900   8.224203  -1.621738   0.834340   0.000093  -0.000120
 -2.366251   0.857017   3.579938  -2.242532  -7.382077   0.508120   2.890744   2.573829  -0.093967   0.278900   2.175501   2.477703  -1.176578   2.542745  -0.541905   1.578614   5.061125  11.483202   4.180401  21.525916  41.596340  -0.002424  20.314409  -0.002075   3.495105   1.963942  -0.770645   2.136900  -0.201444  -9.783689   3.656515  -9.257179 -40.984729  -0.003239 -29.467756  -0.004049   3.588442  -5.061912   5.557581   2.222540   3.517700  -2.384495  44.371830   0.024713   0.003731 -24.973401   6.805913   1.057917 -12.290696  -0.047942   0.004531 -27.398980  -2.330467   1.710496  13.203753   0.012382  -0.000685   4.013878   8.484230  -1.592948   0.777240   0.000060  -0.000434
 -2.368381   0.856088   3.568822  -2.162017  -7.471044   0.053799   3.272649   2.606397   0.091992   0.364528   2.048981   2.679430  -1.359903   2.529159  -0.467367   1.354879   5.222284  11.474519   3.787097  21.792807  41.402568  -0.002426  20.597620  -0.001743   3.439764   2.011133  -0.859122   2.136240  -0.166603  -9.876474   3.859228  -9.268632 -41.071111  -0.005296 -29.011471  -0.006212   3.632808  -4.987094   5.659148   2.093197   3.250522  -1.704457  43.048108   0.024487   0.004893 -24.677668   6.789466   0.478599 -18.479938  -0.062250   0.008551 -27.974752  -2.177953   2.452986  13.509920   0.009288   0.000373   2.739414   8.734653  -1.565618   0.667045   0.000053  -0.000915
 -2.370413   0.855140   3.557994  -2.126160  -7.617119  -0.371677   3.646069   2.640403   0.244822   0.472004   1.935815   2.846670  -1.527223   2.515333  -0.395861   1.149529   5.373022  11.478256   3.420004  22.044613  41.232312  -0.002416  20.862962  -0.001375   3.386379   2.068666  -0.939296   2.154214  -0.128650 -10.003188   4.060710  -9.275836 -41.181440  -0.007099 -28.579213  -0.007824   3.670746  -4.863898   5.682225   1.951305   3.000298  -1.067632  41.803389   0.024176   0.006186 -24.416206   6.762485  -0.068972 -24.185093  -0.072849   0.011386 -28.484795  -2.049195   3.162137  13.824372   0.006836   0.001032   1.542695   8.965430  -1.528670   0.584157   0.000061  -0.001083
 -2.372355   0.854223   3.547451  -2.112055  -7.809704  -0.761278   3.995800   2.673623   0.360230   0.586114   1.832775   2.979490  -1.682533   2.501871  -0.329811   0.966052   5.510424  11.493972   3.081280  22.278517  41.083498  -0.002399  21.109284  -0.000997   3.335121   2.121987  -1.002253   2.184511  -0.087871 -10.152233   4.257437  -9.279903 -41.305934  -0.008550 -28.171773  -0.008931   3.704985  -4.723467   5.652021   1.786582   2.768353  -0.475983  40.628410   0.023727   0.007424 -24.192503   6.728946  -0.586078 -29.440386  -0.080542   0.012898 -28.902419  -1.948585   3.847581  14.222067   0.004710   0.001488   0.458503   9.170097  -1.482579   0.495012   0.000114  -0.001164
 -2.374535   0.854754   3.537732  -2.217010  -7.696594  -1.399017   4.335296   2.589888   0.646489   0.737981   1.650104   3.187002  -1.828759   2.484402  -0.257467   0.850152   5.589021  11.567855   2.809025  22.451807  40.946305  -0.002173  21.312719  -0.000745   3.283925   2.081909  -1.070871   2.217243  -0.069849 -10.414581   4.439782  -9.296759 -41.475665  -0.009899 -27.784878  -0.009255   3.739123  -4.559675   5.565906   1.564725   2.556441   0.407962  40.088761   0.020156   0.005815 -24.928025   6.758409  -0.727516 -26.461449  -0.061766   0.014183 -29.128470  -1.887189   4.638052  14.583396   0.003210   0.002888  -0.566150   9.354873  -1.433378   0.446516   0.000118  -0.001230
 -2.376712   0.856144   3.528594  -2.317697  -7.518566  -1.977162   4.618430   2.508028   0.840468   0.877375   1.463253   3.363056  -1.968576   2.468505  -0.185361   0.779456   5.641757  11.658963   2.573068  22.603729  40.856188  -0.001942  21.497471  -0.000632   3.232439   2.001638  -1.064173   2.253241  -0.053434 -10.665389   4.612161  -9.317819 -41.652945  -0.010775 -27.427559  -0.009011   3.772413  -4.419026   5.419857   1.358949   2.305787   1.239362  39.495008   0.017351   0.004344 -25.111191   6.768238  -0.914798 -23.970865  -0.047490   0.013841 -29.276575  -1.801866   5.322071  14.977623   0.002109   0.004318  -1.506659   9.531158  -1.389949   0.392462   0.000123  -0.001335
 -2.378739   0.858271   3.520011  -2.535518  -7.278089  -2.561949   4.928562   2.550455   1.028396   1.078289   1.205566   3.538069  -2.096583   2.445453  -0.020374   0.665479   5.660239  11.712096   2.391041  22.502741  40.889515  -0.001687  21.657182  -0.000403   3.243677   2.027267  -1.070297   2.226317  -0.209843 -10.906325   4.912704  -9.468376 -41.865405  -0.014071 -26.831407  -0.010917   3.806323  -4.369280   5.253892   1.280652   2.101015   2.087094  38.875471   0.014914   0.002604 -24.758415   6.673381  -1.151052 -22.433520  -0.036995   0.012285 -29.575962  -1.827484   5.907519  16.773971   0.000471   0.011923  -2.573721   9.644957  -1.196722   0.300135   0.000374  -0.001599
 -2.380574   0.860881   3.511871  -2.738054  -7.083823  -3.049566   5.188679   2.610372   1.140005   1.277118   0.959124   3.671364  -2.216942   2.427699   0.141132   0.595094   5.650626  11.764342   2.245576  22.387125  40.935289  -0.001467  21.795621  -0.000223   3.252770   2.012488  -1.034547   2.211522  -0.358729 -11.143688   5.201451  -9.610113 -42.078421  -0.016359 -26.266501  -0.012056   3.838214  -4.264343   5.007777   1.216939   1.949223   2.813541  38.201997   0.012935   0.001163 -24.159819   6.575302  -1.379809 -21.364330  -0.029022   0.010476 -29.770942  -1.838414   6.388934  18.687084  -0.000048   0.017137  -3.554176   9.749717  -1.014203   0.250787   0.000453  -0.001523
 -2.382238   0.863744   3.503972  -2.886124  -6.926256  -3.458235   5.404987   2.661526   1.203825   1.449424   0.722437   3.764606  -2.333421   2.411585   0.288510   0.544162   5.628035  11.804609   2.120670  22.269984  40.980342  -0.001310  21.920838  -0.000071   3.261005   1.971644  -0.974147   2.202556  -0.493266 -11.363938   5.473742  -9.741942 -42.282378  -0.017683 -25.739356  -0.012649   3.868020  -4.156650   4.740785   1.125679   1.830659   3.444623  37.477514   0.011344   0.000006 -23.442015   6.479317  -1.608000 -20.518106  -0.022729   0.008800 -29.890343  -1.839362   6.798957  20.536977   0.000034   0.019907  -4.465679   9.844163  -0.842099   0.216287   0.000468  -0.001365
 -2.383742   0.866711   3.496199  -2.977433  -6.798179  -3.805076   5.593022   2.700116   1.236134   1.595947   0.492665   3.827175  -2.445449   2.396285   0.422628   0.499195   5.600325  11.827205   2.007971  22.156001  41.015779  -0.001205  22.036232   0.000053   3.268534   1.919377  -0.915038   2.192305  -0.619907 -11.563528   5.726030  -9.867549 -42.472321  -0.018230 -25.249285  -0.012888   3.897291  -4.061199   4.476905   0.997066   1.732442   4.001700  36.717730   0.010069  -0.000879 -22.673631   6.385995  -1.856284 -19.745655  -0.017546   0.007382 -29.956112  -1.833086   7.158472  22.292244   0.000330   0.020926  -5.315579   9.929249  -0.679782   0.186708   0.000464  -0.001199
